# xmcd
#
# Track frame offsets:
#	150
#	12079
#	24795
#	36241
#	45130
#	59036
#	70195
#	80147
#	88252
#	95107
#	110349
#	120903
#	136549
#	147726
#	159376
#	170060
#	178777
#	187098
#	196994
#
# Disc length: 2700 seconds
#
# Revision: 0
# Processed by: cddbd v1.5.1PL0 Copyright (c) Steve Scherf et al.
# Submitted via: dBpowerAMP V4.0
#
DISCID=060a8a13
DTITLE=The Rascals - Forever
DYEAR=1996
DGENRE=Blues
TTITLE0=Boppin'the blues
TTITLE1=Mystery train
TTITLE2=w
TTITLE3=c
TTITLE4=d
TTITLE5=g
TTITLE6=g
TTITLE7=g
TTITLE8=g
TTITLE9=g
TTITLE10=g
TTITLE11=g
TTITLE12=g
TTITLE13=g
TTITLE14=g
TTITLE15=g
TTITLE16=g
TTITLE17=g
TTITLE18=g
EXTD=B-J Baartmans
EXTT0=
EXTT1=
EXTT2=
EXTT3=
EXTT4=
EXTT5=
EXTT6=
EXTT7=
EXTT8=
EXTT9=
EXTT10=
EXTT11=
EXTT12=
EXTT13=
EXTT14=
EXTT15=
EXTT16=
EXTT17=
EXTT18=
PLAYORDER=
